<?xml version="1.0" encoding="UTF-8"?>
<svg version="1.1" xmlns="http://www.w3.org/2000/svg" width="1446" height="1446">
<path d="M0 0 C23.77173025 6.05557316 47.44690339 12.43019025 71.10697556 18.9070549 C76.44202245 20.36692049 81.7778005 21.82410894 87.11352539 23.28149414 C94.03540192 25.17226399 100.95722115 27.06324244 107.87876892 28.95521545 C125.65192649 33.81335731 143.42699912 38.66445227 161.203125 43.51171875 C161.8648239 43.69215587 162.52652279 43.87259299 163.20827317 44.05849791 C169.30699549 45.72154028 175.40573513 47.38451908 181.50449848 49.04741096 C191.26961273 51.70997525 201.03462318 54.37291991 210.79956055 57.03613281 C211.85014391 57.32266051 211.85014391 57.32266051 212.92195117 57.61497664 C216.47050923 58.58278394 220.0190656 59.55059739 223.56762123 60.51841354 C229.98781926 62.26942455 236.40803229 64.02038057 242.82824409 65.77134109 C246.39027775 66.74280183 249.95231046 67.71426608 253.51434326 68.68572998 C254.93256378 69.07251741 256.3507843 69.45930483 257.76900482 69.84609222 C260.57624054 70.61170197 263.38347626 71.37731171 266.19071198 72.14292145 C266.87893716 72.33061922 267.56716235 72.518317 268.27624285 72.71170259 C269.66208924 73.0896607 271.04793561 73.46761884 272.43378198 73.845577 C275.88116843 74.78577343 279.32855501 75.7259694 282.77594185 76.6661644 C288.95021503 78.35005504 295.12448733 80.03394893 301.29875481 81.71786046 C304.7235833 82.65191581 308.14841255 83.5859684 311.57324219 84.52001953 C312.25072628 84.7047893 312.92821037 84.88955907 313.62622428 85.07992792 C323.22510056 87.69781695 332.82401929 90.3155503 342.42296386 92.93318892 C348.61141246 94.62078913 354.79984868 96.30843473 360.98828125 97.99609375 C361.66885574 98.18169357 362.34943023 98.3672934 363.05062819 98.55851746 C382.33315671 103.81708608 401.61508604 109.07784597 420.89649552 114.34051621 C433.30517711 117.72732216 445.71403693 121.11347499 458.12301016 124.49921227 C459.49898683 124.87464196 460.87496244 125.25007556 462.25093699 125.62551308 C502.61051301 136.63765335 542.97957841 147.61429958 583.35733032 158.55960083 C627.44520612 170.51067245 671.52790272 182.48054443 715.59366661 194.5129261 C720.16556297 195.76113772 724.73793253 197.00760528 729.31051636 198.2532959 C735.37078686 199.9044616 741.43015703 201.55888836 747.48879814 203.21602249 C749.70931318 203.82281093 751.93014072 204.42845702 754.1512928 205.03290939 C757.16618206 205.85360498 760.17991095 206.67842688 763.19335938 207.50439453 C764.08146522 207.74512569 764.96957106 207.98585686 765.8845892 208.2338829 C771.88580944 209.88580944 771.88580944 209.88580944 773 211 C773.09901875 212.86758946 773.12663332 214.73897665 773.12749195 216.60918903 C773.1304996 217.83486853 773.13350725 219.06054803 773.13660604 220.32336932 C773.13491816 221.7011194 773.13314708 223.07886938 773.13130188 224.45661926 C773.1330024 225.90656185 773.13515134 227.35650398 773.13771313 228.8064453 C773.14232543 231.97147484 773.14372803 235.13648478 773.14274788 238.30151749 C773.14116042 243.45012944 773.14634572 248.59872183 773.15237427 253.74732971 C773.16050001 261.22236437 773.16543547 268.6973956 773.16866493 276.17243385 C773.17415179 287.981563 773.19103922 299.7906631 773.21000671 311.59977722 C773.21636397 315.6363687 773.22267232 319.67296026 773.22898388 323.70955181 C773.23056764 324.7184335 773.2321514 325.72731519 773.23378316 326.76676906 C773.25173233 338.25995658 773.26795269 349.75314616 773.28295898 361.24633789 C773.28433486 362.29741955 773.28571073 363.3485012 773.28712829 364.43143382 C773.30906255 381.46796379 773.31981507 398.50448634 773.32732973 415.54102794 C773.33539316 433.01562413 773.358659 450.49015642 773.3952834 467.96471614 C773.41734404 478.75227497 773.42696219 489.53970255 773.42078307 500.32728281 C773.41761498 507.71732895 773.42889541 515.1072628 773.45167748 522.4972742 C773.46437958 526.76509332 773.47047404 531.03266238 773.45926094 535.30049133 C773.44913493 539.20461775 773.45725273 543.10825747 773.4801239 547.01232608 C773.48514167 548.4275591 773.48334584 549.84283537 773.47419123 551.25804768 C773.46275375 553.17643939 773.47814035 555.09493568 773.49498463 557.01328754 C773.49596144 558.08051904 773.49693824 559.14775054 773.49794465 560.24732238 C774.12398844 563.67980594 775.2999599 564.86158171 778 567 C779.99359101 567.59390083 779.99359101 567.59390083 782.12554932 567.51898193 C782.93880676 567.53289474 783.75206421 567.54680756 784.58996582 567.56114197 C785.47325562 567.5561116 786.35654541 567.55108124 787.26660156 567.54589844 C788.20352844 567.55623611 789.14045532 567.56657379 790.10577393 567.57722473 C793.20089855 567.60670919 796.29537083 567.60815312 799.390625 567.609375 C801.53726452 567.62435281 803.6838925 567.6410791 805.83050537 567.65948486 C811.47921267 567.70321525 817.1277645 567.72317018 822.77661133 567.73822021 C828.54127212 567.75777071 834.30576451 567.79974305 840.0703125 567.83984375 C851.38018496 567.91520777 862.68993562 567.96338968 874 568 C874 575.59 874 583.18 874 591 C477.67 591 81.34 591 -327 591 C-327 583.41 -327 575.82 -327 568 C-323.54249268 567.99589111 -320.08498535 567.99178223 -316.52270508 567.98754883 C-305.10723974 567.97036206 -293.6919688 567.92613046 -282.27664661 567.86790943 C-275.3545613 567.83326692 -268.43267497 567.80790492 -261.51049805 567.80444336 C-254.83186873 567.80107747 -248.15381567 567.77177973 -241.475317 567.72656822 C-238.92563477 567.71356487 -236.37589274 567.7092955 -233.82618141 567.71384621 C-230.2583251 567.71873164 -226.69194288 567.69274774 -223.12426758 567.65942383 C-222.06690903 567.66804947 -221.00955048 567.67667511 -219.92015076 567.68556213 C-218.94564972 567.67027466 -217.97114868 567.65498718 -216.96711731 567.63923645 C-216.12367673 567.63647107 -215.28023615 567.63370569 -214.41123676 567.63085651 C-210.76618607 566.67719489 -209.34349309 564.91709694 -207 562 C-206.50793067 559.06890766 -206.3251305 556.72075715 -206.36914349 553.79471874 C-206.36168589 552.96839991 -206.3542283 552.14208108 -206.34654471 551.29072228 C-206.32756743 548.50945911 -206.34431522 545.72955097 -206.36076355 542.94828796 C-206.35445478 540.93931189 -206.34595372 538.93034169 -206.33544332 536.9213832 C-206.31288217 531.39138085 -206.32152341 525.86179445 -206.3351289 520.33177888 C-206.34437099 514.37199208 -206.32486229 508.41229253 -206.30880737 502.45252991 C-206.28493556 492.12370172 -206.2791928 481.79498207 -206.28615379 471.46613121 C-206.29337921 460.63244247 -206.29029865 449.79883755 -206.27343178 438.96515846 C-206.27238913 438.29173763 -206.27134648 437.61831679 -206.27027224 436.92448926 C-206.26492354 433.50457198 -206.2593905 430.08465503 -206.25378648 426.66473816 C-206.21441742 402.43689093 -206.19818904 378.2090779 -206.19555664 353.98120117 C-206.19294627 330.44309556 -206.17986202 306.90503388 -206.15258789 283.36694336 C-206.15175147 282.64148982 -206.15091504 281.91603627 -206.15005327 281.16859929 C-206.14164203 273.88334479 -206.13301774 266.59809056 -206.12423737 259.3128365 C-206.10635532 244.47172735 -206.0898953 229.63061673 -206.07429504 214.789505 C-206.073576 214.10712384 -206.07285697 213.42474267 -206.07211614 212.72168329 C-206.02425701 167.14780333 -206.00965092 121.57390234 -206 76 C-203.30667669 76.62893428 -200.61365381 77.2591104 -197.92078495 77.88998508 C-197.16637612 78.06601746 -196.41196729 78.24204984 -195.63469759 78.42341653 C-188.95443738 79.99015553 -182.33056611 81.73348637 -175.71459961 83.55249023 C-174.50174789 83.88332108 -173.28889618 84.21415192 -172.03929138 84.55500793 C-168.75959516 85.44967317 -165.48089765 86.34794689 -162.20237803 87.24691272 C-158.69946373 88.20666278 -155.19557084 89.16282766 -151.69178772 90.11940002 C-145.0269427 91.93952053 -138.3629037 93.76257323 -131.69918305 95.5868054 C-124.29925069 97.61248223 -116.89860099 99.63553033 -109.49780345 101.65804362 C-107.31294304 102.25520446 -105.12814158 102.85258051 -102.94335365 103.45000648 C-95.76929166 105.4114982 -88.59438875 107.36982584 -81.41781616 109.32211304 C-78.62334267 110.08273583 -75.82897232 110.84373653 -73.03466797 111.60498047 C-72.35405957 111.79034261 -71.67345117 111.97570474 -70.97221828 112.16668391 C-62.57978118 114.45400421 -54.1999232 116.78025991 -45.83307934 119.15993023 C-41.33013736 120.43937348 -36.82288243 121.70317516 -32.31506538 122.96531868 C-30.25775631 123.54644518 -28.20273435 124.13574008 -26.15028191 124.73379326 C-23.3705575 125.54355451 -20.5844103 126.32559309 -17.79516602 127.10180664 C-16.99729486 127.34264795 -16.19942371 127.58348927 -15.37737465 127.8316288 C-11.48593516 128.88478331 -8.83482485 129.28531751 -5.01280212 127.80613708 C-1.73309526 126.28441499 -1.73309526 126.28441499 -1 123 C-0.89860626 121.32546463 -0.85375197 119.64724035 -0.84178162 117.96968079 C-0.8319928 116.93061584 -0.82220398 115.8915509 -0.81211853 114.82099915 C-0.80636307 113.68164413 -0.8006076 112.54228912 -0.79467773 111.3684082 C-0.78477814 110.16828094 -0.77487854 108.96815369 -0.76467896 107.73165894 C-0.73848617 104.44062453 -0.71662621 101.14961445 -0.69667697 97.85853982 C-0.67480961 94.41919104 -0.64742459 90.97988634 -0.62062073 87.54057312 C-0.57070399 81.02770076 -0.52576138 74.51480392 -0.48259836 68.00188369 C-0.43321728 60.58717402 -0.37830238 53.17250859 -0.32291877 45.75784171 C-0.20911437 30.50526868 -0.10227197 15.25265498 0 0 Z M25.16543579 34.91296387 C22.19209595 39.15174461 22.29486555 42.32876913 22.35302734 47.39257812 C22.34426575 48.33137314 22.33550415 49.27016815 22.32647705 50.2374115 C22.3044983 53.33582997 22.3190308 56.43281741 22.3359375 59.53125 C22.33256894 61.68689243 22.32771599 63.84253301 22.32144165 65.99816895 C22.31407236 70.51410012 22.32477806 75.02953653 22.34814453 79.54541016 C22.37663184 85.33291251 22.36022824 91.11925557 22.33028221 96.90671539 C22.31221106 101.35744964 22.31796654 105.8079092 22.33092117 110.25865173 C22.33425566 112.39249305 22.33016662 114.52635935 22.31852341 116.66017151 C22.30581813 119.64325983 22.32518805 122.62447317 22.35302734 125.60742188 C22.34290619 126.48861191 22.33278503 127.36980194 22.32235718 128.2776947 C22.39643923 132.56432016 22.58870193 134.45078823 25.22724915 137.97407532 C27.91253319 139.93609192 29.82594358 140.94872544 33.01098633 141.80737305 C34.5039624 142.22319389 34.5039624 142.22319389 36.02709961 142.64741516 C37.11772705 142.93263535 38.20835449 143.21785553 39.33203125 143.51171875 C40.50217773 143.8322673 41.67232422 144.15281586 42.87792969 144.483078 C46.15232986 145.37643187 49.43020967 146.25429566 52.71033096 147.12624359 C56.32227261 148.09059297 59.92872443 149.07509126 63.53588867 150.05712891 C69.93251101 151.79575691 76.33235611 153.52207791 82.734375 155.24072266 C92.26769607 157.8002603 101.79560271 160.37949844 111.3221302 162.96419334 C115.94240497 164.21774416 120.56286029 165.47062894 125.18334961 166.72338867 C126.59974055 167.10742654 126.59974055 167.10742654 128.04474545 167.49922276 C135.01287026 169.38813976 141.98195533 171.27348918 148.95141602 173.1574707 C182.86657455 182.32632426 216.76502759 191.55589195 250.65854979 200.80432177 C253.45047982 201.56613464 256.24242611 202.32788795 259.03437227 203.08964175 C273.93781879 207.15590601 288.84104109 211.22299158 303.74414062 215.29052734 C330.23169761 222.51982744 356.72003353 229.74627229 383.20871699 236.97144371 C387.38858071 238.11156323 391.56843118 239.2517313 395.74827111 240.39193803 C435.38757169 251.20497876 475.03148872 262.00091383 514.68534279 272.7604847 C518.22373959 273.72063644 521.7620407 274.68114057 525.30033493 275.64167023 C527.63440548 276.27510289 529.96863829 276.90793458 532.30288696 277.54071045 C533.73724406 277.93005219 535.17160076 278.31939542 536.60595703 278.70874023 C537.28928919 278.89367098 537.97262135 279.07860172 538.67666054 279.26913643 C542.43414352 280.28927935 546.18370084 281.33315003 549.92767334 282.40188599 C550.74601088 282.63401071 551.56434841 282.86613543 552.40748405 283.10529423 C553.9817521 283.55277359 555.55482492 284.00448681 557.12646675 284.46110439 C560.58745029 285.44246251 563.37137563 286 567 286 C566.9981014 286.58422499 566.9962028 287.16844999 566.99424666 287.77037877 C566.88239745 322.38327118 566.79658811 356.99612755 566.74467335 391.60916222 C566.73841969 395.76361171 566.73194809 399.91806083 566.7253418 404.07250977 C566.72337447 405.31314288 566.72337447 405.31314288 566.7213674 406.57883928 C566.69960076 419.97739441 566.66017234 433.37584246 566.61423602 446.77433404 C566.56750632 460.51869233 566.539712 474.26299447 566.52955753 488.00742894 C566.5226911 496.49103615 566.50099129 504.97434072 566.46041767 513.45785479 C566.43402228 519.27244537 566.42599169 525.08687911 566.43249311 530.90152528 C566.4357012 534.25833714 566.42800843 537.61419196 566.40397263 540.97098351 C566.37919637 544.60866101 566.38504016 548.24503017 566.39872742 551.88273621 C566.38416321 552.94596468 566.369599 554.00919315 566.35459346 555.10464066 C566.40169806 559.71730523 566.4997312 562.24611347 569.09399128 566.15556717 C572.69828443 568.44319851 574.83896528 568.62620324 579.09741211 568.62818909 C579.80052741 568.63528347 580.50364271 568.64237786 581.22806454 568.64968723 C583.57838443 568.66725561 585.92704791 568.64917053 588.27734375 568.63110352 C589.96453606 568.63624283 591.651723 568.6435242 593.33889771 568.65278625 C597.91750579 568.67130709 602.49553186 568.65835751 607.07411575 568.63869596 C611.8657423 568.62231373 616.65733186 568.63112176 621.44897461 568.63621521 C629.49570007 568.64073664 637.54219312 568.62486325 645.58886719 568.59692383 C654.89174758 568.56487169 664.19420879 568.56488749 673.49711895 568.5821386 C682.44646651 568.59800274 691.39566039 568.59127085 700.34500122 568.57420158 C704.15353486 568.56732923 707.96194538 568.56836543 711.77047729 568.57574654 C716.25546439 568.58340807 720.73997447 568.57128771 725.22488022 568.54389763 C726.87080342 568.5370113 728.51677114 568.5369185 730.16269302 568.54411316 C732.40985684 568.55280404 734.65554726 568.53686046 736.90258789 568.5146637 C738.15987198 568.51185678 739.41715607 568.50904985 740.71253967 568.50615788 C744.60624834 567.90665823 746.26023191 566.78686171 749 564 C750.03157458 560.90527625 750.1273392 558.78455341 750.13142776 555.5407362 C750.13526891 554.39939289 750.13911005 553.25804959 750.1430676 552.08212012 C750.14176787 550.19285685 750.14176787 550.19285685 750.14044189 548.26542664 C750.14302501 546.91830304 750.14603802 545.57118021 750.1494453 544.22405845 C750.15752485 540.5141017 750.1593054 536.80416428 750.16004276 533.09419978 C750.16189165 529.0961401 750.16943813 525.09809049 750.17617798 521.10003662 C750.18976842 512.35422394 750.19578707 503.60841585 750.20018864 494.86259437 C750.20294975 489.40355631 750.20718686 483.94452003 750.21169281 478.48548317 C750.22388621 463.37631053 750.23418551 448.2671393 750.2375679 433.15796185 C750.23789725 431.70702063 750.23789725 431.70702063 750.23823325 430.22676747 C750.23845153 429.25713653 750.23866981 428.2875056 750.2388947 427.2884919 C750.23933817 425.32359421 750.23978473 423.35869652 750.24023438 421.39379883 C750.24056652 419.93180783 750.24056652 419.93180783 750.24090537 418.44028167 C750.24485428 402.64354708 750.2623108 386.8468586 750.2855939 371.05014183 C750.30929554 354.83885815 750.3217692 338.6275976 750.32293582 322.4162963 C750.32385323 313.31142244 750.32962211 304.20660866 750.34775543 295.10175133 C750.36314037 287.34946111 750.36828639 279.59724952 750.36001733 271.84494694 C750.35610516 267.88877795 750.35706792 263.9327674 750.37107468 259.97661781 C750.38377972 256.35505305 750.38264622 252.73376634 750.37048396 249.11220215 C750.36759101 247.18116043 750.37948844 245.25011406 750.39190602 243.3191101 C750.44716345 235.19748511 750.44716345 235.19748511 747 228 C744.52840442 226.81973059 742.57935748 226.10399828 739.97363281 225.44555664 C739.26637684 225.24633386 738.55912086 225.04711107 737.83043289 224.84185123 C736.32248064 224.42027265 734.81147912 224.00947428 733.29786682 223.60869217 C731.0734799 223.01946442 728.85887172 222.40270534 726.64489746 221.77560425 C721.91254852 220.44180282 717.16771187 219.15591764 712.421875 217.87109375 C710.59113831 217.37300214 708.76047779 216.87463049 706.92988586 216.37600708 C702.96895089 215.297708 699.0075182 214.22126419 695.04568481 213.14627075 C688.56925282 211.38891271 682.09399371 209.627259 675.61889648 207.86499023 C668.58212141 205.950059 661.54526685 204.03542211 654.50804138 202.12214661 C636.58254889 197.24848456 618.65966182 192.36531766 600.73828125 187.4765625 C600.0774198 187.29628919 599.41655836 187.11601587 598.7356708 186.93027973 C592.64727965 185.2694465 586.55891256 183.6085251 580.47057629 181.94749069 C570.71745186 179.28663632 560.96412795 176.62651409 551.21069336 173.96679688 C549.79526538 173.5808123 548.37983754 173.19482725 546.96440983 172.80884171 C546.26255721 172.61744732 545.5607046 172.42605293 544.83758372 172.22885871 C544.13497977 172.03725929 543.43237582 171.84565986 542.70848083 171.64825439 C541.65351818 171.3605673 541.65351818 171.3605673 540.57724315 171.06706834 C518.03663791 164.92024907 495.49656415 158.77148756 472.95733625 152.61961973 C459.90922933 149.05828347 446.86091396 145.49771113 433.8125 141.9375 C433.13219239 141.75187657 432.45188478 141.56625315 431.75096178 141.37500477 C399.68207425 132.62498527 367.61006503 123.88667599 335.52734375 115.1875 C334.85962676 115.00644769 334.19190978 114.82539539 333.50395894 114.63885665 C322.75180773 111.72345876 311.9994119 108.80896328 301.24698114 105.89459658 C260.12486624 94.74872003 219.01578013 83.55616404 177.92017353 72.31293082 C173.15625681 71.00961304 168.39222196 69.70672788 163.62811279 68.40411377 C115.57742812 55.26591107 115.57742812 55.26591107 91.93701172 48.75256348 C85.43274686 46.96060153 78.92724662 45.17314728 72.42133331 43.38718033 C67.50405724 42.03683241 62.58864889 40.67996598 57.67472267 39.31748104 C54.76291585 38.51173561 51.84944076 37.71216979 48.93542099 36.91446877 C47.00645762 36.38437814 45.07961037 35.84660536 43.15286255 35.30851746 C42.01944427 34.99957047 40.886026 34.69062347 39.71826172 34.37231445 C38.74976288 34.10481888 37.78126404 33.8373233 36.78341675 33.5617218 C32.02922539 32.60227764 29.3170294 32.11117566 25.16543579 34.91296387 Z M-183 114 C-183.49180208 116.74784825 -183.67295893 118.87559512 -183.62641239 121.6162653 C-183.63338 122.37891592 -183.64034761 123.14156654 -183.64752635 123.92732778 C-183.66482107 126.49210415 -183.6463795 129.05538004 -183.62818909 131.62013245 C-183.63323242 133.47363931 -183.64045959 135.3271413 -183.64968723 137.18063205 C-183.66866664 142.2810826 -183.6563437 147.38105558 -183.6389643 152.48149431 C-183.62562375 157.97917457 -183.64101542 163.47678341 -183.65278625 168.97445679 C-183.6711916 179.74692 -183.66263134 190.51920216 -183.64469803 201.29165978 C-183.63068865 210.04390395 -183.62677565 218.79609888 -183.6301403 227.5483532 C-183.63061775 228.79265805 -183.63109519 230.03696291 -183.6315871 231.31897397 C-183.6326134 233.84651639 -183.63366876 236.37405879 -183.63475286 238.90160119 C-183.64358484 261.9407675 -183.62490933 284.97984896 -183.59422263 308.01898771 C-183.56635797 329.05916095 -183.56139964 350.09921864 -183.57641602 371.1394043 C-183.58023833 376.52745082 -183.58403309 381.91549734 -183.5875864 387.30354404 C-183.58802422 387.96683936 -183.58846203 388.63013468 -183.58891311 389.31352986 C-183.60014761 406.88609048 -183.59273521 424.45864289 -183.57970566 442.03120083 C-183.57786121 444.54928807 -183.57602648 447.06737532 -183.57420158 449.58546257 C-183.57328949 450.82451029 -183.5723774 452.06355802 -183.57143768 453.34015264 C-183.56582375 462.08575759 -183.5691474 470.83133335 -183.57574654 479.57693672 C-183.58346511 490.22927322 -183.57678036 500.88148536 -183.5515715 511.53379674 C-183.53904255 516.97222977 -183.53297099 522.41046886 -183.54411316 527.84890938 C-183.55411059 532.8223842 -183.5457924 537.79547121 -183.52253198 542.7688986 C-183.51734746 544.57297411 -183.51897954 546.37708401 -183.52792663 548.18114478 C-183.5390406 550.62442592 -183.5257798 553.06637702 -183.50615788 555.50957584 C-183.51523669 556.21798965 -183.52431551 556.92640347 -183.53366944 557.65628436 C-183.48036858 561.03646905 -183.22134514 562.720723 -181.09336513 565.40565151 C-177.28637618 568.30512996 -174.81316592 568.12363024 -170.03988647 568.12025452 C-169.31538886 568.12110894 -168.59089124 568.12196337 -167.84443915 568.12284368 C-165.40456879 568.12449739 -162.96476642 568.11897889 -160.52490234 568.11352539 C-158.78078717 568.11324347 -157.03667187 568.11340135 -155.29255676 568.1139679 C-150.54694845 568.11425568 -145.80136523 568.10836204 -141.05576277 568.10139394 C-136.10029698 568.09515721 -131.14483067 568.09455635 -126.18936157 568.09336853 C-116.80064968 568.09025616 -107.41194938 568.08204403 -98.02324259 568.07201904 C-87.33658128 568.06085499 -76.64991942 568.05534672 -65.96325374 568.05032361 C-43.97549601 568.03986135 -21.98774873 568.02226372 0 568 C0.09149723 516.108339 0.16200908 464.21668613 0.20426132 412.32496037 C0.20926432 406.2027241 0.21444159 400.08048799 0.21972656 393.95825195 C0.22130043 392.12996304 0.22130043 392.12996304 0.22290608 390.264739 C0.24032515 370.51285384 0.27187111 350.76101511 0.30861118 331.00915752 C0.34597882 310.75140397 0.368227 290.49367478 0.37635398 270.23588818 C0.38185042 257.72941574 0.39922857 245.22307452 0.43166587 232.71664246 C0.45276219 224.14782432 0.45921114 215.57907431 0.45400551 207.01023207 C0.45143612 202.06179643 0.45545513 197.11359055 0.4768219 192.16519547 C0.49622757 187.63806001 0.49730912 183.11130974 0.48359558 178.58415689 C0.48189965 176.94342503 0.48702453 175.30266954 0.49953273 173.66198448 C0.51551705 171.43655682 0.50697781 169.21253117 0.49219131 166.98712635 C0.4937102 165.74961779 0.49522908 164.51210924 0.49679399 163.23710042 C-0.09397337 159.38767128 -1.28949142 157.74376458 -4 155 C-6.14799625 153.84592173 -6.14799625 153.84592173 -8.5566864 153.27764893 C-9.92165489 152.89380602 -9.92165489 152.89380602 -11.31419849 152.50220871 C-12.30710235 152.24270054 -13.3000062 151.98319237 -14.32299805 151.71582031 C-15.37883685 151.42427692 -16.43467566 151.13273354 -17.52250957 150.8323555 C-19.8151167 150.20160518 -22.10999189 149.57905424 -24.4067955 148.96376038 C-28.00239347 147.99935803 -31.59079093 147.01161383 -35.1781311 146.01696777 C-42.35528277 144.0310215 -49.53969549 142.07263568 -56.72584748 140.11958981 C-60.32715608 139.14031972 -63.92778049 138.15853986 -67.52848816 137.17706299 C-74.31752672 135.32690407 -81.10714841 133.47889501 -87.89699906 131.63171887 C-95.59922226 129.53621877 -103.30077996 127.43827793 -111.00228465 125.34013891 C-124.17470838 121.75158538 -137.34759818 118.16474801 -150.52108765 114.58010864 C-152.15774635 114.13473251 -152.15774635 114.13473251 -153.82746887 113.68035889 C-155.37816291 113.2593906 -155.37816291 113.2593906 -156.9601841 112.82991791 C-159.01244484 112.26961821 -161.06313019 111.70352051 -163.11231041 111.13205719 C-164.08814394 110.86089836 -165.06397747 110.58973953 -166.06938171 110.31036377 C-167.35759842 109.94924437 -167.35759842 109.94924437 -168.67183971 109.58082962 C-175.4728539 107.88411204 -178.60845889 108.48252738 -183 114 Z M23 170 C22.26106277 173.23242974 22.26106277 173.23242974 22.38476086 176.83095264 C22.37899164 177.50869459 22.37322241 178.18643654 22.36727837 178.88471612 C22.35402015 181.16072511 22.37648831 183.43497302 22.39872742 185.71089172 C22.39654735 187.35688176 22.39217002 189.00287011 22.38578159 190.64884919 C22.37458579 195.17560052 22.39462234 199.70176188 22.41967189 204.22843802 C22.44123557 209.10842295 22.43395936 213.98837378 22.43016052 218.86839294 C22.42753694 227.32455154 22.44324337 235.78051745 22.47134972 244.23662758 C22.51196039 256.46275641 22.52500445 268.68879194 22.53128967 280.91498091 C22.54223667 300.75042097 22.57552189 320.58575831 22.62280273 340.42114258 C22.66868782 359.69099411 22.70408488 378.96081776 22.7253418 398.23071289 C22.72665541 399.41822351 22.72796903 400.60573414 22.72932246 401.82922993 C22.73584758 407.78653694 22.74216613 413.74384415 22.74838197 419.70115149 C22.8002276 469.134172 22.88830395 518.56708099 23 568 C72.02792623 568.06845545 121.0558558 568.13214025 170.08381653 568.16937256 C170.80914108 568.16992479 171.53446563 568.17047702 172.28176971 568.17104598 C188.04402673 568.18301687 203.80628426 568.19409771 219.56854255 568.20426132 C227.29805517 568.20925078 235.02756766 568.21443698 242.75708008 568.21972656 C243.52627027 568.2202496 244.29546046 568.22077263 245.08795945 568.22131152 C270.03146178 568.23836493 294.97492793 568.26841613 319.91840833 568.30518888 C345.54544205 568.34290085 371.17245574 568.3675375 396.79951675 568.37565996 C400.41697131 568.37681262 404.03442579 568.37811517 407.65188026 568.37950897 C408.71985834 568.37991351 408.71985834 568.37991351 409.80941173 568.38032622 C421.28259412 568.38505794 432.75571468 568.40362321 444.22887183 568.42732814 C455.75591239 568.45085039 467.28286741 568.45955421 478.80993559 568.45400551 C485.05857354 568.45143476 491.30702957 568.45547062 497.55563545 568.4768219 C503.27071697 568.4962083 508.98549328 568.49732154 514.7005885 568.48359558 C516.7733482 568.48189777 518.84612652 568.48703864 520.91884925 568.49953273 C523.72688266 568.51548148 526.53380034 568.50699803 529.34181499 568.49219131 C530.15491783 568.50269937 530.96802066 568.51320742 531.80576298 568.5240339 C535.5407768 568.47923458 537.77342745 568.1402093 540.97863656 566.15673804 C543.81405621 563.13142488 544.12487617 560.71216355 544.13142776 556.72765636 C544.13526891 555.85105112 544.13911005 554.97444588 544.1430676 554.07127684 C544.14176787 552.62558167 544.14176787 552.62558167 544.14044189 551.15068054 C544.14341302 550.12737902 544.14638414 549.1040775 544.1494453 548.04976684 C544.15815018 544.6043774 544.15964205 541.15902263 544.16113281 537.71362305 C544.1657597 535.25003993 544.17078418 532.78645753 544.17617798 530.32287598 C544.18931594 523.6183178 544.19578614 516.91377325 544.20018864 510.20920539 C544.20295086 506.02324086 544.20718817 501.83727865 544.21169281 497.65131569 C544.22388552 486.06270206 544.23418488 474.47409029 544.2375679 462.88547039 C544.23789725 461.77283686 544.23789725 461.77283686 544.23823325 460.63772588 C544.23845153 459.89419099 544.23866981 459.1506561 544.2388947 458.38458985 C544.23933817 456.87789388 544.23978473 455.37119792 544.24023438 453.86450195 C544.24056652 452.74344104 544.24056652 452.74344104 544.24090537 451.59973244 C544.2448536 439.48891144 544.26230835 427.3781506 544.2855939 415.26735284 C544.30930518 402.83483006 544.32176965 390.40233747 544.32293582 377.96979171 C544.3238527 370.98878155 544.32960823 364.00784977 544.34775543 357.02686119 C544.36476231 350.46138427 544.36641071 343.89602996 544.35761642 337.33052826 C544.35684396 334.91904362 544.36121623 332.50755111 544.37107468 330.0960865 C544.38373261 326.80730225 544.37795055 323.51905054 544.36749268 320.23027039 C544.37554908 319.27316577 544.38360548 318.31606116 544.39190602 317.32995337 C544.3534873 312.17374456 544.02273408 308.3914949 541 304 C538.23133941 302.67456081 535.91764657 301.80416747 533 301 C532.20990288 300.76581423 531.41980576 300.53162846 530.6057663 300.29034615 C527.89053012 299.50153097 525.16588325 298.75625323 522.43652344 298.01782227 C521.39593497 297.73302002 520.35534651 297.44821777 519.28322506 297.15478516 C515.80958106 296.20505613 512.33448853 295.26074275 508.859375 294.31640625 C506.36553645 293.63573966 503.87178976 292.95473642 501.37812805 292.27342224 C496.00285217 290.8053665 490.62682554 289.34008801 485.25027466 287.87670898 C477.36265687 285.7298691 469.47617822 283.57886874 461.58995783 281.42690206 C449.53265709 278.13683373 437.4746446 274.84938369 425.41608274 271.56394076 C408.86195208 267.05364126 392.30955801 262.53700918 375.75804901 258.01709938 C330.4731319 245.65078148 285.18424397 233.29913336 239.87890625 221.0078125 C239.19784207 220.82303447 238.51677789 220.63825644 237.8150754 220.44787908 C223.58658683 216.58763759 209.35756268 212.72937769 195.12748528 208.87499714 C188.53924586 207.09047427 181.95119941 205.30523971 175.36328125 203.51953125 C174.71641719 203.34420199 174.06955314 203.16887273 173.40308714 202.98823047 C154.14453311 197.76789111 134.89569255 192.5129333 115.65402222 187.23071289 C111.7165373 186.14988847 107.77872 185.07027892 103.84082031 183.9909668 C102.56844135 183.64219608 101.29606239 183.29342537 99.9851265 182.93408585 C97.45534802 182.24065976 94.92556042 181.54726695 92.3957634 180.85390854 C85.10778664 178.85568277 77.82176299 176.85052154 70.53713894 174.84010983 C66.09932187 173.61695598 61.65983579 172.39995126 57.21987343 171.18461037 C55.17286104 170.62282436 53.12658348 170.0583529 51.08110619 169.49100304 C48.29982987 168.71984366 45.51615311 167.95804235 42.73168945 167.19848633 C41.92701296 166.97286074 41.12233646 166.74723515 40.29327583 166.51477242 C32.76740053 164.48227063 28.38826181 163.39700582 23 170 Z " fill="#FEFEFE" transform="translate(419,313)"/>
<path d="M0 0 C9.41656822 0.88123546 18.65348911 4.00033128 27.72265625 6.56640625 C29.38619757 7.033004 31.0498723 7.4991263 32.71366882 7.96481323 C36.28667455 8.96582823 39.85881334 9.96985898 43.43029785 10.97628784 C49.16789992 12.59298042 54.90747993 14.202568 60.64746094 15.81079102 C62.62777957 16.36569859 64.60809571 16.92061504 66.58840942 17.47554016 C67.57886387 17.75307947 68.56931831 18.03061878 69.58978653 18.31656837 C72.63705475 19.17072628 75.68413754 20.02554276 78.73117065 20.88053894 C98.79837687 26.51057756 118.87915179 32.09136507 138.96238327 37.66392136 C143.65091475 38.96501407 148.33924668 40.26682541 153.02758789 41.56860352 C159.6365876 43.40362905 166.24563341 45.2384883 172.85475063 47.07309055 C189.75970919 51.76571075 206.66376287 56.4615875 223.56778717 61.15757179 C230.13108348 62.9808626 236.69443457 64.80395614 243.2578125 66.62695312 C261.02750471 71.5625894 278.79694486 76.49912867 296.56565666 81.43829346 C304.96034243 83.77170538 313.35514444 86.104699 321.75 88.4375 C322.67573193 88.69475105 323.60146385 88.95200211 324.55524826 89.21704865 C353.23911065 97.18770501 381.93002946 105.13258347 410.625 113.0631485 C449.77052019 123.88199083 488.90073662 134.75501424 528.02441406 145.65255737 C529.02469635 145.93117489 530.02497864 146.2097924 531.05557251 146.49685287 C533.0719732 147.05850183 535.08837132 147.62016004 537.10476685 148.18182755 C559.21281502 154.33986143 581.32469151 160.48408506 603.4375 166.625 C605.30033401 167.14234288 607.16316767 167.65968703 609.02600098 168.17703247 C616.45216873 170.23940351 623.87836021 172.30168909 631.30459595 174.36381531 C644.36079928 177.98927987 657.41680189 181.61546644 670.47265625 185.2421875 C671.40159636 185.50023289 672.33053646 185.75827827 673.28762627 186.02414322 C677.98107039 187.32791426 682.67451116 188.63169735 687.36795044 189.93548584 C695.80792819 192.28001746 704.24793557 194.62444245 712.6879406 196.96887589 C717.37529493 198.27091293 722.06264737 199.57295681 726.75 200.875 C728.62499999 201.39583337 730.49999999 201.9166667 732.375 202.4375 C828 229 828 229 923.625 255.5625 C925.01722385 255.94922866 925.01722385 255.94922866 926.43757343 256.34377003 C928.31232891 256.86453569 930.18708414 257.38530226 932.0618391 257.90606976 C936.75307819 259.20919605 941.44432172 260.51230634 946.13557434 261.81538391 C954.52842992 264.14666307 962.92125671 266.47804559 971.31391239 268.81004429 C975.94232542 270.09609984 980.57076517 271.38205917 985.19921875 272.66796875 C986.11798986 272.92323019 987.03676098 273.17849163 987.98337364 273.44148827 C1000.93767415 277.04036957 1013.89323637 280.63468012 1026.84963989 284.22598267 C1034.15201784 286.25010325 1041.45406736 288.27540753 1048.75604439 290.30097389 C1054.70219256 291.95031462 1060.64877416 293.5980803 1066.59569263 295.2446413 C1070.27078333 296.2626014 1073.94544811 297.28209231 1077.62000084 298.30199242 C1079.31195046 298.77127162 1081.00407339 299.23992654 1082.69639015 299.70788002 C1092.17870934 302.33026248 1101.61653617 305.03927069 1111 308 C1110.35339733 315.92088272 1108.11358317 323.36974048 1106 331 C1094.5785544 328.20898486 1083.23790448 325.18152638 1071.9140625 322.01953125 C1070.16772571 321.53360126 1068.42133534 321.04786378 1066.67489624 320.56230164 C1062.9437346 319.52451074 1059.21293393 318.485436 1055.48242188 317.4453125 C1049.50188168 315.77786329 1043.5205322 314.11333008 1037.5390625 312.44921875 C1030.22744367 310.41485672 1022.91600628 308.37984515 1015.60480881 306.34396935 C1002.80813359 302.78068285 990.01004077 299.22252339 977.2109375 295.66796875 C976.29142933 295.41260157 975.37192116 295.15723438 974.4245491 294.8941288 C969.79988018 293.60979011 965.17518429 292.32554851 960.55047607 291.04135132 C952.13921576 288.70564664 943.72819754 286.36907041 935.31715775 284.03257179 C930.62811477 282.73001329 925.93905663 281.42750937 921.25 280.125 C919.37499993 279.60416693 917.49999993 279.0833336 915.625 278.5625 C914.696875 278.3046875 913.76875 278.046875 912.8125 277.78125 C820 252 727.1875 226.21875 184.375 75.4375 C183.44685171 75.17968121 182.51870342 74.92186241 181.56242943 74.65623093 C179.6876643 74.13546248 177.81289954 73.61469273 175.93813515 73.09392166 C171.24704454 71.79083475 166.55594759 70.48777072 161.86483765 69.18475342 C153.470207 66.85301104 145.07561768 64.52112057 136.68127251 62.18835068 C132.05056786 60.90149354 127.41982506 59.61477373 122.7890625 58.328125 C121.86992695 58.07274208 120.9507914 57.81735916 120.00380325 57.55423737 C107.08004273 53.96364207 94.15449181 50.3795509 81.22772217 46.79980469 C73.95126438 44.78474087 66.67527815 42.76797679 59.39939499 40.75083923 C53.48373767 39.11097568 47.56746373 37.47336233 41.65070152 35.83749008 C37.98821619 34.82428471 34.32634486 33.80887398 30.66463089 32.79288483 C28.9836119 32.32694155 27.30234635 31.86188658 25.62080002 31.39785004 C15.01175854 28.46960321 4.48376627 25.3500064 -6 22 C-2.30992736 2.30992736 -2.30992736 2.30992736 0 0 Z " fill="#FFFFFF" transform="translate(271,176)"/>
<path d="M0 0 C11.55 0 23.1 0 35 0 C42.54369549 21.95667726 50.00940291 43.93726891 57.33203125 65.96875 C57.67961361 67.01417969 58.02719597 68.05960938 58.38531113 69.13671875 C61.60113742 78.81030003 64.81275923 88.48527488 68.02172852 98.16113281 C69.80545719 103.53896715 71.59204743 108.91584375 73.38043785 114.29212952 C74.05341208 116.31725063 74.7252483 118.3427503 75.39591408 120.36863708 C76.31830707 123.15486094 77.24429554 125.93986461 78.17114258 128.72460938 C78.44477631 129.55427216 78.71841003 130.38393494 79.00033569 131.23873901 C79.99086169 134.90373793 79.99086169 134.90373793 82 138 C82.41405594 136.75561157 82.82811188 135.51122314 83.25471497 134.22912598 C87.20828776 122.34789942 91.16355326 110.46723747 95.1203661 98.58708954 C97.1532433 92.48329804 99.1855777 86.37932706 101.21655273 80.27490234 C116.76281114 33.55074027 116.76281114 33.55074027 123.57421875 13.65625 C123.80233561 12.9871611 124.03045246 12.3180722 124.26548195 11.62870789 C124.88561229 9.81192051 125.51039005 7.99672133 126.13549805 6.18164062 C126.47534225 5.1931311 126.81518646 4.20462158 127.16532898 3.18615723 C128 1 128 1 129 0 C140.55 0 152.1 0 164 0 C164 55.77 164 111.54 164 169 C157.4 169 150.8 169 144 169 C144 120.16 144 71.32 144 21 C143.01 21 142.02 21 141 21 C140.74340607 21.98552856 140.74340607 21.98552856 140.48162842 22.9909668 C138.61020352 30.0312589 136.43300562 36.92049466 134.078125 43.8125 C133.70129578 44.92343018 133.32446655 46.03436035 132.93621826 47.17895508 C131.71099383 50.78717622 130.48071624 54.3936487 129.25 58 C128.60892473 59.88404626 127.96785064 61.76809294 127.32697296 63.65220642 C120.5009276 83.71510435 113.54817842 103.73274269 106.53923035 123.7323761 C103.51411802 132.37277634 100.53371643 141.02844182 97.5625 149.6875 C97.20514771 150.72886108 97.20514771 150.72886108 96.84057617 151.79125977 C95.5589584 155.52702003 94.27921497 159.26341573 93 163 C85.74 163 78.48 163 71 163 C66.50017071 151.75042677 66.50017071 151.75042677 64.87548828 147.00537109 C64.50556259 145.92909958 64.1356369 144.85282806 63.75450134 143.74394226 C63.36371902 142.59867569 62.97293671 141.45340912 62.5703125 140.2734375 C62.1468605 139.0392659 61.72340851 137.8050943 61.28712463 136.53352356 C60.37324306 133.86996787 59.46092958 131.20588253 58.54989624 128.54135132 C57.10838286 124.32531178 55.66348073 120.11043868 54.21801758 115.89575195 C52.7053036 111.48442046 51.19286119 107.07299665 49.68165588 102.66114807 C46.0252041 91.98654366 42.36090418 81.31465768 38.69140625 70.64453125 C38.43687935 69.90439285 38.18235245 69.16425446 37.92011261 68.40168762 C36.66515863 64.75248023 35.41009764 61.10330966 34.15496826 57.4541626 C31.81492207 50.65064776 29.47566001 43.84686351 27.13671875 37.04296875 C26.73046768 35.86160843 26.32421661 34.68024811 25.90565491 33.46308899 C25.35040382 31.84783577 25.35040382 31.84783577 24.78393555 30.19995117 C24.46168503 29.26269699 24.13943451 28.32544281 23.80741882 27.35978699 C23.19704052 25.57587667 22.59622963 23.78868889 22 22 C21.34 21.67 20.68 21.34 20 21 C20 69.84 20 118.68 20 169 C13.4 169 6.8 169 0 169 C0 113.23 0 57.46 0 0 Z " fill="#FEFEFE" transform="translate(65,969)"/>
<path d="M0 0 C13.86 0 27.72 0 42 0 C43.87412177 4.99765805 45.54094443 9.61362865 46.91918945 14.70703125 C47.0895531 15.33232696 47.25991674 15.95762266 47.43544292 16.60186672 C47.99829705 18.67112609 48.55574423 20.74180228 49.11328125 22.8125 C49.51964987 24.30991991 49.92639868 25.80723668 50.33349609 27.30445862 C51.43459524 31.35739252 52.53125506 35.41151527 53.62710953 39.4658699 C55.49263252 46.3633658 57.36642232 53.25862474 59.23933983 60.15411568 C59.72788809 61.95297705 60.21628109 63.7518806 60.70452309 65.55082512 C64.27035639 78.68769687 67.87078841 91.81465412 71.50097084 104.93388748 C72.27458773 107.72982806 73.04756461 110.52594482 73.82035828 113.32211304 C76.05058718 121.3903615 78.28279136 129.45803201 80.52492714 137.52298069 C81.44611903 140.84060129 82.36315321 144.15936071 83.27908325 147.47843742 C83.70586026 149.02133898 84.13446223 150.56373704 84.56500244 152.10559273 C85.15259172 154.21048961 85.73390246 156.3170238 86.3137207 158.42407227 C86.64120804 159.60413345 86.96869537 160.78419464 87.30610657 162.00001526 C88 165 88 165 88 169 C81.73 169 75.46 169 69 169 C67.00189708 163.67172555 65.2077768 158.53307788 63.73828125 153.0703125 C63.54276169 152.35390594 63.34724213 151.63749939 63.14579773 150.89938354 C62.73818818 149.4024957 62.33242688 147.9051034 61.9284668 146.40722656 C61.3080935 144.10867341 60.68083825 141.81207636 60.05273438 139.515625 C59.65584575 138.05479727 59.25934706 136.59386353 58.86328125 135.1328125 C58.6758284 134.44639679 58.48837555 133.75998108 58.29524231 133.05276489 C57 128.23113254 57 128.23113254 57 126 C21.855 126.495 21.855 126.495 -14 127 C-17.96 140.86 -21.92 154.72 -26 169 C-32.6 169 -39.2 169 -46 169 C-43.18772674 156.73353543 -40.05829961 144.60036726 -36.703125 132.47265625 C-36.19115467 130.6129441 -35.67946347 128.75315509 -35.16802979 126.89329529 C-33.8114942 121.96318587 -32.45113637 117.03413917 -31.0899353 112.10531616 C-29.68080881 107.00050292 -28.275163 101.8947314 -26.86914062 96.7890625 C-24.62891908 88.65586974 -22.3866238 80.52325171 -20.14257812 72.39111328 C-17.56482915 63.04961643 -14.9910183 53.70704187 -12.41960907 44.36379814 C-10.78058481 38.40896595 -9.14022376 32.45450188 -7.5 26.5 C-6.99829285 24.67796555 -6.99829285 24.67796555 -6.4864502 22.81912231 C-5.56474656 19.47292613 -4.6419512 16.12703327 -3.71875 12.78125 C-3.45330383 11.81698593 -3.18785767 10.85272186 -2.91436768 9.85923767 C-2.55360138 8.55316307 -2.55360138 8.55316307 -2.18554688 7.22070312 C-1.87562805 6.09686218 -1.87562805 6.09686218 -1.55944824 4.95031738 C-1.08242252 3.28733682 -0.54708847 1.6412654 0 0 Z M15 17 C12.18146537 27.09254177 9.36469193 37.18557329 6.55010509 47.27921677 C5.24283032 51.96714384 3.93497183 56.65490635 2.62573242 61.34228516 C1.35995084 65.8741608 0.09576386 70.4064786 -1.16736412 74.93909454 C-1.64717686 76.65980802 -2.12754355 78.38036714 -2.60849953 80.10076141 C-3.28714242 82.52866953 -3.96373053 84.95714217 -4.63989258 87.38574219 C-4.834823 88.08130722 -5.02975342 88.77687225 -5.23059082 89.49351501 C-6.93787902 95.63945269 -8.4510086 101.80403438 -10 108 C10.46 108 30.92 108 52 108 C50.74781418 101.73907089 49.46759433 95.66369285 47.76928711 89.53686523 C47.5560228 88.75672562 47.34275848 87.976586 47.12303162 87.17280579 C46.42793162 84.63377041 45.72783332 82.09614701 45.02734375 79.55859375 C44.53914545 77.78171884 44.05115755 76.00478611 43.56336975 74.22779846 C42.54604872 70.52485701 41.52624567 66.82261082 40.50463867 63.12084961 C39.19295506 58.36723777 37.88749616 53.61194223 36.58383846 48.85612392 C35.58002645 45.1967531 34.57301328 41.53826931 33.56500435 37.88005257 C33.08197163 36.12556081 32.59993827 34.3707936 32.11890984 32.61575127 C31.44963268 30.17578433 30.77607486 27.7370404 30.10131836 25.29858398 C29.90233948 24.56983063 29.7033606 23.84107727 29.49835205 23.09024048 C28.77338613 19.77254914 28.77338613 19.77254914 27 17 C24.98035801 16.92755947 22.95832876 16.91622812 20.9375 16.9375 C19.83277344 16.94652344 18.72804688 16.95554687 17.58984375 16.96484375 C16.73519531 16.97644531 15.88054687 16.98804688 15 17 Z " fill="#FEFEFE" transform="translate(397,969)"/>
<path d="M0 0 C6.6 0 13.2 0 20 0 C20 25.74 20 51.48 20 78 C25.94 77.505 25.94 77.505 32 77 C34.74941787 76.93970575 37.50003897 76.9120374 40.25 76.9375 C41.53390625 76.94652344 42.8178125 76.95554687 44.140625 76.96484375 C45.08421875 76.97644531 46.0278125 76.98804688 47 77 C47.21269531 76.22011719 47.42539062 75.44023438 47.64453125 74.63671875 C49.48029362 69.7113736 52.05939544 65.35410702 54.6875 60.8125 C55.8682151 58.74928564 57.04785871 56.68545782 58.2265625 54.62109375 C58.8443457 53.54069824 59.46212891 52.46030273 60.09863281 51.34716797 C63.29816874 45.71470295 66.42749583 40.04355318 69.5625 34.375 C75.94210199 22.85801784 82.44175068 11.41621178 89 0 C96.59 0 104.18 0 112 0 C107.33565987 9.77290313 102.10859906 19.08018047 96.61328125 28.40942383 C91.67121566 36.81080555 86.86873604 45.28220199 82.14624023 53.80883789 C79.29806042 58.94171891 76.40469523 64.03347608 73.3828125 69.06640625 C72.81320801 70.02522705 72.24360352 70.98404785 71.65673828 71.97192383 C70.57905383 73.77902247 69.48696651 75.57763533 68.37841797 77.3659668 C67.90291504 78.1681665 67.42741211 78.97036621 66.9375 79.796875 C66.51339844 80.49135742 66.08929687 81.18583984 65.65234375 81.90136719 C64.71629513 84.91269727 65.57902309 86.23038778 67 89 C68.06909214 90.89726452 69.17861696 92.77202548 70.31640625 94.62890625 C70.98961914 95.73226318 71.66283203 96.83562012 72.35644531 97.97241211 C73.09174433 99.16914036 73.82709735 100.36583543 74.5625 101.5625 C75.32558764 102.81038843 76.08827624 104.05852095 76.85058594 105.30688477 C78.4374892 107.90504018 80.02611488 110.50213133 81.61572266 113.09863281 C83.90345127 116.83842828 86.178554 120.58576269 88.44921875 124.3359375 C88.8078299 124.92799988 89.16644104 125.52006226 89.53591919 126.13006592 C90.96116214 128.48326627 92.38627832 130.83654305 93.81079102 133.19018555 C97.48559127 139.25926409 101.18220639 145.31271889 104.95703125 151.3203125 C105.56772461 152.29427979 106.17841797 153.26824707 106.80761719 154.27172852 C107.94677126 156.08331313 109.09163274 157.89132602 110.24316406 159.69506836 C110.74170898 160.48792236 111.24025391 161.28077637 111.75390625 162.09765625 C112.19033447 162.78351807 112.6267627 163.46937988 113.07641602 164.17602539 C114 166 114 166 114 169 C106.34212541 170.99690498 98.46135976 172.19052353 91 169 C83.75737101 162.00664455 79.6008747 152.11124789 75.16162109 143.20458984 C71.51123429 135.97054217 67.12892986 129.15495098 62.82958984 122.29464722 C55.4370124 110.4799606 55.4370124 110.4799606 53.1940918 103.93066406 C51.80458038 100.95611167 51.80458038 100.95611167 47 96 C38.09 95.67 29.18 95.34 20 95 C20 119.42 20 143.84 20 169 C13.4 169 6.8 169 0 169 C0 113.23 0 57.46 0 0 Z " fill="#FEFEFE" transform="translate(835,969)"/>
<path d="M0 0 C-0.33 5.28 -0.66 10.56 -1 16 C-4.37670894 17.12556965 -6.14783959 16.89077256 -9.65234375 16.44140625 C-11.38581055 16.23269897 -11.38581055 16.23269897 -13.15429688 16.01977539 C-14.40275391 15.86887451 -15.65121094 15.71797363 -16.9375 15.5625 C-27.29788466 14.41415912 -37.56507572 13.64700194 -48 13.5625 C-49.11238037 13.5406665 -50.22476074 13.51883301 -51.37084961 13.49633789 C-61.01145564 13.51875959 -72.45175139 15.02153682 -79.6328125 22.11328125 C-84.50682038 28.83941212 -86.02406026 36.87152169 -85 45 C-83.97499469 51.17748735 -82.39393878 55.89809708 -77.2421875 59.703125 C-68.19812255 64.93418696 -57.88771865 67.19373917 -47.85546875 69.75 C-9.13853932 79.63583078 -9.13853932 79.63583078 0 95 C6.49935114 107.4401643 4.95261223 126.33794985 0.99609375 139.28515625 C-3.47676599 150.9618297 -10.20499769 158.68089838 -21.41015625 164.18359375 C-30.93674517 168.30523999 -40.82714781 169.38952447 -51.125 169.375 C-52.69084839 169.37584595 -52.69084839 169.37584595 -54.28833008 169.37670898 C-70.90902442 169.15596821 -87.62508222 166.72915296 -104 164 C-103.67 158.72 -103.34 153.44 -103 148 C-99.12110826 147.03027707 -97.07170015 147.05134839 -93.1875 147.5234375 C-92.03910645 147.6572583 -90.89071289 147.7910791 -89.70751953 147.92895508 C-88.48403809 148.0761499 -87.26055664 148.22334473 -86 148.375 C-55.438391 153.02115021 -55.438391 153.02115021 -27 144 C-20.21896958 137.96761837 -17.41196181 130.44067118 -16.83984375 121.49609375 C-16.63506861 115.09464489 -17.46060081 109.88255317 -20 104 C-20.26039063 103.29746094 -20.52078125 102.59492187 -20.7890625 101.87109375 C-22.44729674 99.30885439 -24.16089907 99.06209165 -27 98 C-27.86206055 97.61448975 -28.72412109 97.22897949 -29.61230469 96.83178711 C-37.33809011 93.41667845 -45.01884052 91.37647719 -53.25 89.5625 C-91.50205338 80.70160886 -91.50205338 80.70160886 -101 66 C-107.84057145 51.52635187 -107.81024866 34.87278923 -102.72314453 19.83496094 C-99.03203594 10.46886636 -91.96441003 4.19100443 -83 0 C-57.09383628 -9.36056965 -26.37642466 -5.6750025 0 0 Z " fill="#FEFEFE" transform="translate(703,971)"/>
<path d="M0 0 C40.26 0 80.52 0 122 0 C122 5.94 122 11.88 122 18 C105.17 18 88.34 18 71 18 C71 67.83 71 117.66 71 169 C64.73 169 58.46 169 52 169 C52 119.17 52 69.34 52 18 C34.84 18 17.68 18 0 18 C0 12.06 0 6.12 0 0 Z " fill="#FEFEFE" transform="translate(1210,969)"/>
<path d="M0 0 C6.6 0 13.2 0 20 0 C20 55.77 20 111.54 20 169 C13.4 169 6.8 169 0 169 C0 113.23 0 57.46 0 0 Z " fill="#FEFEFE" transform="translate(1070,969)"/>
<path d="M0 0 C11.88 0 23.76 0 36 0 C36 20.13 36 40.26 36 61 C24.12 61 12.24 61 0 61 C0 40.87 0 20.74 0 0 Z M9 8 C9 22.85 9 37.7 9 53 C15.27 53 21.54 53 28 53 C28 38.15 28 23.3 28 8 C21.73 8 15.46 8 9 8 Z " fill="#FEFEFE" transform="translate(250,1209)"/>
<path d="M0 0 C12.54 0 25.08 0 38 0 C38.06892227 7.43849967 38.12864327 14.87588841 38.16479492 22.31445312 C38.17986786 24.84411374 38.20032961 27.37374829 38.22631836 29.90332031 C38.26276616 33.54238323 38.2797417 37.18110016 38.29296875 40.8203125 C38.30845261 41.94865509 38.32393646 43.07699768 38.33988953 44.23953247 C38.34109598 49.88674007 38.30677936 54.17243682 35 59 C31.6953591 61.55890335 28.30907377 61.20618148 24.25 61.125 C23.07953125 61.10695313 21.9090625 61.08890625 20.703125 61.0703125 C19.81109375 61.04710937 18.9190625 61.02390625 18 61 C18 58.36 18 55.72 18 53 C22.95 52.505 22.95 52.505 28 52 C28.33 37.48 28.66 22.96 29 8 C24.05 8 19.1 8 14 8 C13.91435791 9.28575928 13.82871582 10.57151855 13.74047852 11.89624023 C13.4200412 16.6991093 13.09699678 21.50180016 12.77319336 26.30444336 C12.63381789 28.37698731 12.49513494 30.44957796 12.35717773 32.5222168 C12.15794153 35.51363685 11.9561564 38.50487613 11.75390625 41.49609375 C11.6934462 42.41208847 11.63298615 43.32808319 11.57069397 44.27183533 C11.18921055 49.8696474 10.65659965 55.42757501 10 61 C7.36 61 4.72 61 2 61 C1.7233425 49.82739183 2.59024722 38.81314555 3.5 27.6875 C3.64499903 25.86787576 3.78953358 24.04821444 3.93359375 22.22851562 C4.28371718 17.81856535 4.64009443 13.40916227 5 9 C3.35 8.67 1.7 8.34 0 8 C0 5.36 0 2.72 0 0 Z " fill="#FEFEFE" transform="translate(516,1209)"/>
<path d="M0 0 C3.3 0 6.6 0 10 0 C14.95 9.9 19.9 19.8 25 30 C25.66 29.67 26.32 29.34 27 29 C28.05836661 25.82490018 28.20243789 23.35717617 28.31640625 20.01953125 C28.35830078 18.85615234 28.40019531 17.69277344 28.44335938 16.49414062 C28.48267578 15.27919922 28.52199219 14.06425781 28.5625 12.8125 C28.60568359 11.58595703 28.64886719 10.35941406 28.69335938 9.09570312 C28.7995309 6.06391619 28.90157952 3.03204685 29 0 C31.64 0 34.28 0 37 0 C37.11647041 4.54144994 37.18734502 9.08251394 37.25 13.625 C37.28351562 14.91019531 37.31703125 16.19539063 37.3515625 17.51953125 C37.47373994 29.3096544 37.47373994 29.3096544 33 34 C32.401875 34.515625 31.80375 35.03125 31.1875 35.5625 C29.75268038 36.95873222 29.75268038 36.95873222 30.171875 39.08203125 C31.29718811 43.04716754 33.14535236 46.48937287 35.0625 50.125 C35.80895457 51.5413497 36.55008457 52.96052191 37.28515625 54.3828125 C37.61394775 55.00559082 37.94273926 55.62836914 38.28149414 56.27001953 C39 58 39 58 39 61 C36.03 61 33.06 61 30 61 C24.72 50.44 19.44 39.88 14 29 C10.36535685 32.63464315 10.59707655 33.65389419 10.48828125 38.63671875 C10.45283203 39.93544922 10.41738281 41.23417969 10.38085938 42.57226562 C10.3577595 43.94400517 10.3349771 45.3157501 10.3125 46.6875 C10.27932458 48.07099607 10.24483469 49.45446129 10.20898438 50.83789062 C10.12636759 54.22517883 10.05725942 57.61220357 10 61 C7.03 61 4.06 61 1 61 C0.92544051 56.97990543 0.87120642 52.96008267 0.83520508 48.93945312 C0.82018572 47.57382184 0.79976392 46.20823824 0.77368164 44.84277344 C0.73699863 42.87196095 0.72181449 40.90078592 0.70703125 38.9296875 C0.6913208 37.74616699 0.67561035 36.56264648 0.65942383 35.34326172 C1.34807147 28.58316077 4.63723776 25.23531469 9 20 C6.03 13.4 3.06 6.8 0 0 Z " fill="#FEFEFE" transform="translate(701,1209)"/>
<path d="M0 0 C6.15234375 -0.09765625 6.15234375 -0.09765625 8 0 C9.56647575 1.56647575 9.3939054 3.28407421 9.66430664 5.45629883 C9.78435562 6.40430862 9.9044046 7.35231842 10.02809143 8.32905579 C10.15417282 9.36128769 10.28025421 10.39351959 10.41015625 11.45703125 C10.60779823 13.03879402 10.60779823 13.03879402 10.80943298 14.6525116 C11.08797654 16.88926196 11.36440789 19.12627619 11.63891602 21.36352539 C12.05948252 24.78793055 12.48719915 28.21138485 12.91601562 31.63476562 C13.18532237 33.8046346 13.45421611 35.97455489 13.72265625 38.14453125 C13.85076187 39.17069046 13.97886749 40.19684967 14.1108551 41.25410461 C14.28620033 42.69030403 14.28620033 42.69030403 14.46508789 44.15551758 C14.56866104 44.99633377 14.67223419 45.83714996 14.77894592 46.70344543 C15 49 15 49 15 53 C18.43230448 52.73606499 18.43230448 52.73606499 22 52 C24.14237343 48.78643985 24.2616525 47.86952936 24.31884766 44.16137695 C24.33871735 43.1805867 24.35858704 42.19979645 24.37905884 41.18928528 C24.39061005 40.13295395 24.40216125 39.07662262 24.4140625 37.98828125 C24.43342865 36.90491989 24.4527948 35.82155853 24.4727478 34.70536804 C24.53258344 31.24115907 24.5789453 27.77691695 24.625 24.3125 C24.66317607 21.96548021 24.70222758 19.61847448 24.7421875 17.27148438 C24.83828842 11.51443699 24.92230502 5.75732402 25 0 C27.97 0 30.94 0 34 0 C34.07442028 6.68942866 34.12873031 13.37861375 34.16479492 20.06835938 C34.17983716 22.34183961 34.20027603 24.61529104 34.22631836 26.88867188 C34.26290221 30.16543711 34.27977248 33.44181706 34.29296875 36.71875 C34.30845261 37.72740112 34.32393646 38.73605225 34.33988953 39.77526855 C34.34133438 45.89911801 33.63993105 50.44390723 31 56 C26.54021649 60.34828892 23.10808793 61.12735653 17.01953125 61.09765625 C15.85615234 61.09443359 14.69277344 61.09121094 13.49414062 61.08789062 C12.27919922 61.07951172 11.06425781 61.07113281 9.8125 61.0625 C8.58595703 61.05798828 7.35941406 61.05347656 6.09570312 61.04882812 C3.06375332 61.03703065 0.03190094 61.02056921 -3 61 C-3 58.36 -3 55.72 -3 53 C0.3 53 3.6 53 7 53 C6.74605469 51.37835937 6.49210937 49.75671875 6.23046875 48.0859375 C4.49787274 36.96338039 2.79304158 25.83814101 1.25 14.6875 C1.12262451 13.78241699 0.99524902 12.87733398 0.86401367 11.94482422 C0.31798635 7.93552201 -0.16733849 4.0579585 0 0 Z " fill="#FEFEFE" transform="translate(1113,1209)"/>
<path d="M0 0 C2.97 0 5.94 0 9 0 C13.29 9.9 17.58 19.8 22 30 C25.16431122 25.78091838 25.38971223 24.89974092 25.51171875 19.921875 C25.54716797 18.76171875 25.58261719 17.6015625 25.61914062 16.40625 C25.64169922 15.1996875 25.66425781 13.993125 25.6875 12.75 C25.72166016 11.52796875 25.75582031 10.3059375 25.79101562 9.046875 C25.87347162 6.03134154 25.94263201 3.01609806 26 0 C28.64 0 31.28 0 34 0 C34.11647041 4.54144994 34.18734502 9.08251394 34.25 13.625 C34.28351563 14.91019531 34.31703125 16.19539063 34.3515625 17.51953125 C34.47393713 29.32868329 34.47393713 29.32868329 30 34 C27.75 35.875 27.75 35.875 26 37 C26.76579151 41.82970779 28.66538629 45.65055118 30.84375 49.98828125 C32 53 32 53 33 61 C22.44 61 11.88 61 1 61 C1 58.36 1 55.72 1 53 C11.395 52.505 11.395 52.505 22 52 C20.783125 49.504375 19.56625 47.00875 18.3125 44.4375 C13.8981435 35.22640119 9.8915345 25.85248207 5.9375 16.4375 C5.49502426 15.38863113 5.49502426 15.38863113 5.04360962 14.318573 C4.20051062 12.31703124 3.36286447 10.31330908 2.52734375 8.30859375 C2.03999756 7.14126709 1.55265137 5.97394043 1.05053711 4.77124023 C0 2 0 2 0 0 Z " fill="#FEFEFE" transform="translate(996,1209)"/>
<path d="M0 0 C9.57 0 19.14 0 29 0 C29 17.49 29 34.98 29 53 C30.32 53 31.64 53 33 53 C33 55.64 33 58.28 33 61 C21.78 61 10.56 61 -1 61 C-1 58.36 -1 55.72 -1 53 C5.93 53 12.86 53 20 53 C20 38.15 20 23.3 20 8 C13.4 8 6.8 8 0 8 C0 5.36 0 2.72 0 0 Z " fill="#FFFFFF" transform="translate(773,1209)"/>
<path d="M0 0 C9.57 0 19.14 0 29 0 C29 17.49 29 34.98 29 53 C30.65 53 32.3 53 34 53 C34 55.64 34 58.28 34 61 C22.78 61 11.56 61 0 61 C0 58.36 0 55.72 0 53 C6.93 53 13.86 53 21 53 C21 38.15 21 23.3 21 8 C14.07 8 7.14 8 0 8 C0 5.36 0 2.72 0 0 Z " fill="#FFFFFF" transform="translate(884,1209)"/>
<path d="M0 0 C2.64 0 5.28 0 8 0 C8 4.29 8 8.58 8 13 C15.92 13 23.84 13 32 13 C32.09299325 16.89280072 32.17225268 20.78269227 32.21972656 24.67602539 C32.24919327 26.63389776 32.30007758 28.59141099 32.3515625 30.54882812 C32.47886592 43.05638869 29.43840538 53.32389869 23.375 64.1875 C22.98054687 64.92291016 22.58609375 65.65832031 22.1796875 66.41601562 C19.31581678 71.68418322 19.31581678 71.68418322 17 74 C14.31160615 74.26991906 11.70858064 74.08737357 9 74 C9.56639583 70.4964536 10.43365046 67.84900912 12.21484375 64.78515625 C12.65376953 64.01623047 13.09269531 63.24730469 13.54492188 62.45507812 C14.00447266 61.66552734 14.46402344 60.87597656 14.9375 60.0625 C20.41734744 50.61421991 22.3150186 43.59059202 22.625 32.625 C22.66367187 31.50738281 22.70234375 30.38976563 22.7421875 29.23828125 C22.83606216 26.49244737 22.91910281 23.74624685 23 21 C15.41 21 7.82 21 0 21 C0 14.07 0 7.14 0 0 Z " fill="#FEFEFE" transform="translate(636,1196)"/>
<path d="M0 0 C5.94 0 11.88 0 18 0 C18.04954596 7.13499954 18.08578901 14.26989826 18.10986328 21.4050293 C18.11990263 23.8308283 18.13353687 26.25661526 18.15087891 28.68237305 C18.17521775 32.17499775 18.186504 35.66746202 18.1953125 39.16015625 C18.20563507 40.23959 18.21595764 41.31902374 18.22659302 42.4311676 C18.22741752 48.00125851 18.03810289 52.7829165 16 58 C12.25621653 61.27830418 9.03980668 61.3345396 4.1875 61.1875 C2.44533203 61.14689453 2.44533203 61.14689453 0.66796875 61.10546875 C-0.21246094 61.07066406 -1.09289062 61.03585937 -2 61 C-2 58.36 -2 55.72 -2 53 C2.95 52.505 2.95 52.505 8 52 C8.33 37.48 8.66 22.96 9 8 C6.03 8 3.06 8 0 8 C0 5.36 0 2.72 0 0 Z " fill="#FEFEFE" transform="translate(417,1209)"/>
<path d="M0 0 C4.95 0 9.9 0 15 0 C15 20.13 15 40.26 15 61 C12.03 61 9.06 61 6 61 C6 43.51 6 26.02 6 8 C4.02 8 2.04 8 0 8 C0 5.36 0 2.72 0 0 Z " fill="#FFFFFF" transform="translate(948,1209)"/>
<path d="M0 0 C4.95 0 9.9 0 15 0 C15 20.13 15 40.26 15 61 C12.03 61 9.06 61 6 61 C6 43.51 6 26.02 6 8 C4.02 8 2.04 8 0 8 C0 5.36 0 2.72 0 0 Z " fill="#FFFFFF" transform="translate(320,1209)"/>
<path d="M0 0 C4.95 0 9.9 0 15 0 C15 20.13 15 40.26 15 61 C12.36 61 9.72 61 7 61 C7 43.51 7 26.02 7 8 C4.69 8 2.38 8 0 8 C0 5.36 0 2.72 0 0 Z " fill="#FEFEFE" transform="translate(587,1209)"/>
<path d="M0 0 C4.95 0 9.9 0 15 0 C15 11.88 15 23.76 15 36 C12.03 36 9.06 36 6 36 C6 26.76 6 17.52 6 8 C4.02 8 2.04 8 0 8 C0 5.36 0 2.72 0 0 Z " fill="#FFFFFF" transform="translate(1063,1209)"/>
<path d="M0 0 C4.95 0 9.9 0 15 0 C15 11.88 15 23.76 15 36 C12.03 36 9.06 36 6 36 C6 26.76 6 17.52 6 8 C4.02 8 2.04 8 0 8 C0 5.36 0 2.72 0 0 Z " fill="#FFFFFF" transform="translate(468,1209)"/>
<path d="M0 0 C4.95 0 9.9 0 15 0 C15 11.88 15 23.76 15 36 C12.03 36 9.06 36 6 36 C6 26.76 6 17.52 6 8 C4.02 8 2.04 8 0 8 C0 5.36 0 2.72 0 0 Z " fill="#FFFFFF" transform="translate(368,1209)"/>
</svg>
